<svg xmlns="http://www.w3.org/2000/svg" width="19.051" height="19.9" viewBox="0 0 19.051 19.9"><defs><style>.a{fill:#fe48a4;stroke:#fe48a4;stroke-width:0.9px;}</style></defs><g transform="translate(0.45 0.45)"><g transform="translate(0 0)"><g transform="translate(0 0)"><path class="a" d="M1.45,4.267A2.427,2.427,0,0,0-1,6.687,2.426,2.426,0,0,0-.274,8.411a2.307,2.307,0,0,0,1.694.7h.061a2.293,2.293,0,0,0,1.634-.7A2.426,2.426,0,0,0,3.84,6.687a2.261,2.261,0,0,0-.7-1.694A2.29,2.29,0,0,0,1.45,4.267Zm1.24,3.721A1.666,1.666,0,0,1,1.42,8.5,1.836,1.836,0,0,1,.15,7.988a1.759,1.759,0,0,1-.545-1.3A1.808,1.808,0,0,1,1.45,4.872a1.765,1.765,0,0,1,1.24.514,1.808,1.808,0,0,1,.545,1.3A1.759,1.759,0,0,1,2.691,7.988Z" transform="translate(1 -4.267)"/><path class="a" d="M10.861,157.867H8.41a.885.885,0,0,0-.877.908v10.588a.931.931,0,0,0,.908.908h2.42a.925.925,0,0,0,.908-.877V158.775A.93.93,0,0,0,10.861,157.867Zm.3,11.526a.3.3,0,0,1-.3.272H8.441a.325.325,0,0,1-.3-.3V158.775a.3.3,0,0,1,.272-.3h2.45a.325.325,0,0,1,.3.3Z" transform="translate(-7.23 -151.27)"/><path class="a" d="M176.709,149.333h-.635a4.087,4.087,0,0,0-3.025,1.331v-.424a.651.651,0,0,0-.605-.605h-3.025a.621.621,0,0,0-.605.575v11.284a.6.6,0,0,0,.605.545h3.328a.6.6,0,0,0,.605-.545V154.96a1.708,1.708,0,0,1,1.664-1.785,1.783,1.783,0,0,1,1.271.514,1.589,1.589,0,0,1,.424,1.24v6.5a.651.651,0,0,0,.605.605h3.025a.651.651,0,0,0,.605-.605v-7.8A4.2,4.2,0,0,0,176.709,149.333Zm3.63,12.07-.03.03h-2.965l-.03-6.5a2.228,2.228,0,0,0-.575-1.664,2.379,2.379,0,0,0-1.694-.7,2.332,2.332,0,0,0-2.269,2.39v6.474h-3.328V150.241h2.995l.03.03v1.906l.817-.817.03-.03a3.452,3.452,0,0,1,2.783-1.392h.635a3.61,3.61,0,0,1,3.6,3.691Z" transform="translate(-162.793 -143.039)"/></g></g></g></svg>