<svg xmlns="http://www.w3.org/2000/svg" width="25.085" height="19" viewBox="0 0 25.085 19"><defs><style>.a{fill:#fe48a4;}</style></defs><path class="a" d="M197.994,109.682l-5.542-3.032a1.018,1.018,0,0,0-1.507.893v6.013a1.016,1.016,0,0,0,1.5.9l5.542-2.98a1.018,1.018,0,0,0,.006-1.79Zm-5.579,3.117v-4.494l4.142,2.266Zm0,0" transform="translate(-181.59 -101.304)"/><path class="a" d="M24.9,4.484V4.473a5.737,5.737,0,0,0-1.106-2.911A4.082,4.082,0,0,0,21.09.294L20.966.279l-.044,0C17.606.033,12.6,0,12.547,0h-.009c-.05,0-5.059.033-8.4.274l-.044,0L3.972.293A3.979,3.979,0,0,0,1.284,1.6a6.012,6.012,0,0,0-1.1,2.859l0,.026C.177,4.568,0,6.569,0,8.577v1.877c0,2.008.177,4.008.184,4.092v.013a5.681,5.681,0,0,0,1.1,2.876,4.165,4.165,0,0,0,2.794,1.25c.1.012.19.022.25.032l.058.008c1.915.182,7.918.272,8.173.276h.015c.05,0,5.058-.033,8.375-.274l.044,0,.141-.016A3.887,3.887,0,0,0,23.8,17.43a6.011,6.011,0,0,0,1.1-2.859l0-.026c.007-.084.185-2.084.185-4.092V8.577C25.085,6.569,24.908,4.569,24.9,4.484Zm-1.286,5.969c0,1.859-.162,3.773-.178,3.948a4.667,4.667,0,0,1-.721,2.036,2.418,2.418,0,0,1-1.735.8l-.157.018c-3.208.232-8.027.268-8.249.269-.249,0-6.165-.094-8.021-.267-.1-.016-.2-.027-.306-.04a2.749,2.749,0,0,1-1.88-.785l-.014-.015a4.234,4.234,0,0,1-.707-2.016c-.012-.133-.178-2.069-.178-3.954V8.577c0-1.856.162-3.768.178-3.948a4.572,4.572,0,0,1,.721-2.037A2.536,2.536,0,0,1,4.14,1.753l.12-.014c3.254-.233,8.108-.268,8.282-.269s5.026.036,8.252.269l.129.015a2.632,2.632,0,0,1,1.8.815l.006.006a4.3,4.3,0,0,1,.707,2.046c.011.125.178,2.066.178,3.955Zm0,0"/></svg>